{"accessors":[{"bufferView":0,"byteOffset":0,"componentType":5126,"count":132,"max":[0.859319,8.24887,0.992256],"min":[-0.859319,0,-0.992256],"normalized":false,"type":"VEC3"},{"bufferView":1,"byteOffset":0,"componentType":5126,"count":132,"max":[1,0.000063,1,1],"min":[-1,-0.000021,-1,-1],"normalized":false,"type":"VEC4"},{"bufferView":2,"byteOffset":0,"componentType":5126,"count":132,"max":[0.998667,1,0.998667],"min":[-0.998667,-1,-0.998664],"normalized":false,"type":"VEC3"},{"bufferView":3,"byteOffset":0,"componentType":5126,"count":132,"max":[19.532598,15.211023],"min":[-19.532598,-306.146027],"normalized":false,"type":"VEC2"},{"bufferView":4,"byteOffset":0,"componentType":5125,"count":30,"max":[19],"min":[0],"normalized":false,"type":"SCALAR"},{"bufferView":5,"byteOffset":0,"componentType":5126,"count":132,"max":[0.859319,8.24887,0.992256],"min":[-0.859319,0,-0.992256],"normalized":false,"type":"VEC3"},{"bufferView":6,"byteOffset":0,"componentType":5126,"count":132,"max":[1,0.000063,1,1],"min":[-1,-0.000021,-1,-1],"normalized":false,"type":"VEC4"},{"bufferView":7,"byteOffset":0,"componentType":5126,"count":132,"max":[0.998667,1,0.998667],"min":[-0.998667,-1,-0.998664],"normalized":false,"type":"VEC3"},{"bufferView":8,"byteOffset":0,"componentType":5126,"count":132,"max":[19.532598,15.211023],"min":[-19.532598,-306.146027],"normalized":false,"type":"VEC2"},{"bufferView":9,"byteOffset":0,"componentType":5125,"count":186,"max":[131],"min":[20],"normalized":false,"type":"SCALAR"},{"bufferView":10,"byteOffset":0,"componentType":5126,"count":80,"max":[0.22,0.271604,0.22],"min":[-0.22,0,-0.22],"normalized":false,"type":"VEC3"},{"bufferView":11,"byteOffset":0,"componentType":5126,"count":80,"max":[1,0,1,1],"min":[-1,-0.000015,-1,1],"normalized":false,"type":"VEC4"},{"bufferView":12,"byteOffset":0,"componentType":5126,"count":80,"max":[0.928251,0.991103,0.847574],"min":[-0.928256,-0.991103,-0.847564],"normalized":false,"type":"VEC3"},{"bufferView":13,"byteOffset":0,"componentType":5126,"count":80,"max":[3.149606,8.718497],"min":[-3.149606,-10.735437],"normalized":false,"type":"VEC2"},{"bufferView":14,"byteOffset":0,"componentType":5125,"count":96,"max":[79],"min":[0],"normalized":false,"type":"SCALAR"},{"bufferView":15,"byteOffset":0,"componentType":5126,"count":306,"max":[0.960769,3.803955,1.1094],"min":[-0.960769,0,-1.1094],"normalized":false,"type":"VEC3"},{"bufferView":16,"byteOffset":0,"componentType":5126,"count":306,"max":[1,0.000063,1,1],"min":[-1,-0.000021,-1,-1],"normalized":false,"type":"VEC4"},{"bufferView":17,"byteOffset":0,"componentType":5126,"count":306,"max":[1,1,0.866027],"min":[-1,-1,-0.866018],"normalized":false,"type":"VEC3"},{"bufferView":18,"byteOffset":0,"componentType":5126,"count":306,"max":[37.825535,44.677166],"min":[-37.825535,-141.52439899999999],"normalized":false,"type":"VEC2"},{"bufferView":19,"byteOffset":0,"componentType":5125,"count":546,"max":[305],"min":[0],"normalized":false,"type":"SCALAR"},{"bufferView":20,"byteOffset":0,"componentType":5126,"count":24,"max":[0,0.25,1],"min":[-1,0,0],"normalized":false,"type":"VEC3"},{"bufferView":21,"byteOffset":0,"componentType":5126,"count":24,"max":[1,0,1,1],"min":[-1,-0.000015,-1,1],"normalized":false,"type":"VEC4"},{"bufferView":22,"byteOffset":0,"componentType":5126,"count":24,"max":[1,1,1],"min":[-1,-1,-1],"normalized":false,"type":"VEC3"},{"bufferView":23,"byteOffset":0,"componentType":5126,"count":24,"max":[39.370079,1],"min":[-39.370079,-38.370079],"normalized":false,"type":"VEC2"},{"bufferView":24,"byteOffset":0,"componentType":5125,"count":30,"max":[19],"min":[0],"normalized":false,"type":"SCALAR"},{"bufferView":25,"byteOffset":0,"componentType":5126,"count":24,"max":[0,0.25,1],"min":[-1,0,0],"normalized":false,"type":"VEC3"},{"bufferView":26,"byteOffset":0,"componentType":5126,"count":24,"max":[1,0,1,1],"min":[-1,-0.000015,-1,1],"normalized":false,"type":"VEC4"},{"bufferView":27,"byteOffset":0,"componentType":5126,"count":24,"max":[1,1,1],"min":[-1,-1,-1],"normalized":false,"type":"VEC3"},{"bufferView":28,"byteOffset":0,"componentType":5126,"count":24,"max":[39.370079,1],"min":[-39.370079,-38.370079],"normalized":false,"type":"VEC2"},{"bufferView":29,"byteOffset":0,"componentType":5125,"count":6,"max":[23],"min":[20],"normalized":false,"type":"SCALAR"}],"asset":{"generator":"Godot Engine v4.1.3.stable.official@f06b6836a9ecfd0e6ec96d8bcf0fe9c9bc10dcbf","version":"2.0"},"bufferViews":[{"buffer":0,"byteLength":1584,"byteOffset":0},{"buffer":0,"byteLength":2112,"byteOffset":1584},{"buffer":0,"byteLength":1584,"byteOffset":3696},{"buffer":0,"byteLength":1056,"byteOffset":5280},{"buffer":0,"byteLength":120,"byteOffset":6336},{"buffer":0,"byteLength":1584,"byteOffset":6456},{"buffer":0,"byteLength":2112,"byteOffset":8040},{"buffer":0,"byteLength":1584,"byteOffset":10152},{"buffer":0,"byteLength":1056,"byteOffset":11736},{"buffer":0,"byteLength":744,"byteOffset":12792},{"buffer":0,"byteLength":960,"byteOffset":13536},{"buffer":0,"byteLength":1280,"byteOffset":14496},{"buffer":0,"byteLength":960,"byteOffset":15776},{"buffer":0,"byteLength":640,"byteOffset":16736},{"buffer":0,"byteLength":384,"byteOffset":17376},{"buffer":0,"byteLength":3672,"byteOffset":17760},{"buffer":0,"byteLength":4896,"byteOffset":21432},{"buffer":0,"byteLength":3672,"byteOffset":26328},{"buffer":0,"byteLength":2448,"byteOffset":30000},{"buffer":0,"byteLength":2184,"byteOffset":32448},{"buffer":0,"byteLength":288,"byteOffset":34632},{"buffer":0,"byteLength":384,"byteOffset":34920},{"buffer":0,"byteLength":288,"byteOffset":35304},{"buffer":0,"byteLength":192,"byteOffset":35592},{"buffer":0,"byteLength":120,"byteOffset":35784},{"buffer":0,"byteLength":288,"byteOffset":35904},{"buffer":0,"byteLength":384,"byteOffset":36192},{"buffer":0,"byteLength":288,"byteOffset":36576},{"buffer":0,"byteLength":192,"byteOffset":36864},{"buffer":0,"byteLength":24,"byteOffset":37056}],"buffers":[{"byteLength":37080,"uri":"raccoon0.bin"}],"materials":[{"extensions":{},"name":"natureKit-wood","pbrMetallicRoughness":{"baseColorFactor":[0.99999988079071,0.682352840900421,0.43529400229454,1],"metallicFactor":0.25,"roughnessFactor":1}},{"extensions":{},"name":"natureKit-leavesGreen","pbrMetallicRoughness":{"baseColorFactor":[0.35294109582901,0.768627345561981,0.713725388050079,1],"metallicFactor":0.25,"roughnessFactor":1}},{"extensions":{},"name":"natureKit-leavesGreen2","pbrMetallicRoughness":{"baseColorFactor":[0.35294109582901,0.768627345561981,0.713725388050079,1],"metallicFactor":0.25,"roughnessFactor":1}},{"extensions":{},"name":"natureKit-leaves","pbrMetallicRoughness":{"baseColorFactor":[0.337254852056503,0.627450823783875,0.69803911447525,1],"metallicFactor":0.25,"roughnessFactor":1}},{"extensions":{},"name":"natureKit-wood2","pbrMetallicRoughness":{"baseColorFactor":[0.99999988079071,0.682352840900421,0.43529400229454,1],"metallicFactor":0.25,"roughnessFactor":1}},{"extensions":{},"name":"natureKit-leavesGreen3","pbrMetallicRoughness":{"baseColorFactor":[0.35294109582901,0.768627345561981,0.713725388050079,1],"metallicFactor":0.25,"roughnessFactor":1}}],"meshes":[{"extras":{"targetNames":[]},"primitives":[{"attributes":{"NORMAL":2,"POSITION":0,"TANGENT":1,"TEXCOORD_0":3},"indices":4,"material":0,"mode":4},{"attributes":{"NORMAL":7,"POSITION":5,"TANGENT":6,"TEXCOORD_0":8},"indices":9,"material":1,"mode":4}]},{"extras":{"targetNames":[]},"primitives":[{"attributes":{"NORMAL":12,"POSITION":10,"TANGENT":11,"TEXCOORD_0":13},"indices":14,"material":2,"mode":4}]},{"extras":{"targetNames":[]},"primitives":[{"attributes":{"NORMAL":17,"POSITION":15,"TANGENT":16,"TEXCOORD_0":18},"indices":19,"material":3,"mode":4}]},{"extras":{"targetNames":[]},"primitives":[{"attributes":{"NORMAL":22,"POSITION":20,"TANGENT":21,"TEXCOORD_0":23},"indices":24,"material":4,"mode":4},{"attributes":{"NORMAL":27,"POSITION":25,"TANGENT":26,"TEXCOORD_0":28},"indices":29,"material":5,"mode":4}]}],"nodes":[{"children":[1,3,5,7],"extensions":{},"name":"Node3D"},{"children":[2],"extensions":{},"name":"tree_tall","translation":[-6.85299253463745,0.198060870170593,1.28009343147278]},{"extensions":{},"mesh":0,"name":"tree_tall2","scale":[0.232500001788139,0.204600006341934,0.232500001788139],"translation":[7.69999980926514,0.00000000000000000000000000000016,-1.89999985694885]},{"children":[4],"extensions":{},"name":"plant_bush","translation":[-3.20575332641602,0.187764406204224,-2.06510925292969]},{"extensions":{},"mesh":1,"name":"plant_bush2","scale":[0.899999976158142,0.899999976158142,0.899999976158142],"translation":[4.07109451293945,0.00000000000000000000000000000001,2.9219753742218]},{"children":[6],"extensions":{},"name":"tree_pineSmall_round3","translation":[-10.99749279022217,0.198146343231201,3.38201069831848]},{"extensions":{},"mesh":2,"name":"tree_pineSmall_round32","scale":[0.25,0.292499989271164,0.25],"translation":[10.1000003814697,0,-4.29999971389771]},{"children":[8],"extensions":{},"name":"ground_dirt3","scale":[5,5,5],"translation":[9.57174873352051,-1.04438424110413,3.21248006820679]},{"extensions":{},"mesh":3,"name":"ground_dirt2","translation":[-1.40000009536743,0,-1.20000004768372]}],"scene":0,"scenes":[{"nodes":[0]}]}